<svg>
  <defs>
    <!-- calculator -->
    <svg id="calculator" version="1.1" xmlns="http://www.w3.org/2000/svg" xmlns:xlink="http://www.w3.org/1999/xlink" preserveAspectRatio="xMidYMid meet" viewBox="0 0 20 20" width="20" height="20"><defs><path d="M18.46 18.55L18.46 1.54L1.45 1.54L1.45 18.55L18.46 18.55Z" id="cd3IGayJw"></path><path d="M18.02 7.79L1.89 7.79" id="a1UL4EO157"></path><path d="M7.09 8.69L7.09 18.16" id="j2VxC7sRka"></path><path d="M12.71 8.69L12.71 18.16" id="aIptKC1Ls"></path><path d="M12.2 13.16L1.82 13.16" id="epOoo6Pj3"></path></defs><g><g><g><g><use xlink:href="#cd3IGayJw" opacity="1" fill-opacity="0" stroke-width="3" stroke-opacity="1"></use></g></g><g><g><use xlink:href="#a1UL4EO157" opacity="1" fill-opacity="0" stroke-width="3" stroke-opacity="1"></use></g></g><g><g><use xlink:href="#j2VxC7sRka" opacity="1" fill-opacity="0" stroke-width="3" stroke-opacity="1"></use></g></g><g><g><use xlink:href="#aIptKC1Ls" opacity="1" fill-opacity="0" stroke-width="3" stroke-opacity="1"></use></g></g><g><g><use xlink:href="#epOoo6Pj3" opacity="1" fill-opacity="0" stroke-width="3" stroke-opacity="1"></use></g></g></g></g></svg>

    <!-- plot2d -->
    <svg id="plot2d" version="1.1" xmlns="http://www.w3.org/2000/svg" xmlns:xlink="http://www.w3.org/1999/xlink" preserveAspectRatio="xMidYMid meet" viewBox="0 0 20 20" width="20" height="20">
      <path
        opacity="1" fill-opacity="0" stroke-width="2.5" stroke-opacity="1"
         d="
          M20 18.5
          H1.5
          V0
          M12.58 0.16
          C11.33 11.86 7.31 18.24 1.5 18.5">
      </path>
    </svg>

    <!-- unit -->
    <svg id="unit" version="1.1" xmlns="http://www.w3.org/2000/svg" xmlns:xlink="http://www.w3.org/1999/xlink" preserveAspectRatio="xMidYMid meet" viewBox="0 0 20 20" width="20" height="20">
      <defs>
        <path
          opacity="1" fill-opacity="0" stroke-width="3.5" stroke-opacity="1"
          d="M14.4 0.21L19.84 5.65L5.7 19.79L0.25 14.35L14.4 0.21Z" id="aAlcYq9l"></path>
        <clipPath id="clipj1SYLvA2rQ"><use xlink:href="#aAlcYq9l" opacity="1"></use></clipPath>
      </defs>
      <g>
        <g><g><g clip-path="url(#clipj1SYLvA2rQ)"><use xlink:href="#aAlcYq9l" ></use></g></g>

        <path opacity="1" fill-opacity="0" stroke-width="1.5" stroke-opacity="1"
          d="
          M10.01 9.08L8.29 7.38
          M14.19 4.88L12.5 3.19
          M4.92 14.17L3.21 12.46
          M13.12 7.76L10.51 5.15
          M8.18 12.68L5.52 10.04">
        </path>
      </g>
    </svg>
  </defs>
</svg>
